# xmcd
#
# Track frame offsets:
#	150
#	16312
#	33575
#	50427
#	67051
#	84624
#	103076
#	131308
#	149000
#	166165
#	182509
#	201318
#	220934
#	241171
#	262550
#	280160
#	308340
#	327449
#	343703
#
# Disc length: 4744 seconds
#
# Revision: 1
# Processed by: cddbd v1.5.2PL0 Copyright (c) Steve Scherf et al.
# Submitted via: audiograbber 1.82.01
#
DISCID=0f128613
DTITLE=Various Artist - Kuschelrock 20 - CD 2
DYEAR=2006
DGENRE=Blues
TTITLE0=John Lennon - Woman
TTITLE1=David Bowie - Pat Metheny Group - This Is Not America - This Is Not Ame
TTITLE1=rica
TTITLE2=Nickelback - Far Away - Far Away
TTITLE3=Ben Moody feat. Anastacia - Everything burns
TTITLE4=Patrick Swayze feat. Wendy Fraser - She's Like The Wind
TTITLE5=Depeche Mode - Precious
TTITLE6=Tears For Fears - Woman In Chains
TTITLE7=Reamonn - Strong
TTITLE8=Everlast - What it's Like
TTITLE9=Tobias Regner - I Still Burn
TTITLE10=INXS - Afterglow
TTITLE11=Train - Drops Of Jupiter
TTITLE12=Sarah McLachlan - Angel
TTITLE13=All Saints - Black Coffee
TTITLE14=Macy Gray - I Try
TTITLE15=Sade - Is it a Crime
TTITLE16=Usher - Burn
TTITLE17=2raumwohnung - 2 von Millionen von Sternen
TTITLE18=Elvis Presley - Love Me tender
EXTD=
EXTT0=
EXTT1=
EXTT2=
EXTT3=
EXTT4=
EXTT5=
EXTT6=
EXTT7=
EXTT8=
EXTT9=
EXTT10=
EXTT11=
EXTT12=
EXTT13=
EXTT14=
EXTT15=
EXTT16=
EXTT17=
EXTT18=
PLAYORDER=
